# xmcd
#
# Track frame offsets:
#	150
#	12828
#	27960
#	40939
#	55092
#	68664
#	84012
#	98536
#	119567
#	137037
#	152255
#	164914
#	178404
#	189669
#	206876
#
# Disc length: 2899 seconds
#
# Revision: 0
# Processed by: cddbd v1.5.2PL0 Copyright (c) Steve Scherf et al.
# Submitted via: audiograbber 1.83.01
#
DISCID=c70b510f
DTITLE=Various Artist - The Soul Story: Volume 5 - Disc 1
DYEAR=2006
DGENRE=Soul
TTITLE0=Aretha Franklin - Chain Of Fools
TTITLE1=Ray Charles - Drown In My Own Tears
TTITLE2=Otis Redding and Carla Thomas - Tramp
TTITLE3=Clarence Carter - Patches
TTITLE4=The O'Jays - Love Train
TTITLE5=The Persuaders - Thin Line Between Love And Hate
TTITLE6=The Spinners - I'll Be Around
TTITLE7=Gladys Knight and the Pips - Midnight Train To Georgia
TTITLE8=Charles Wright and The Watts 103rd Street Rhythm Band - Express Yoursel
TTITLE8=f
TTITLE9=The Delfonics - Didn't I (Blow Your Mind This Time)
TTITLE10=Carla Thomas - B-A-B-Y
TTITLE11=Percy Sledge - Take Time To Know Her
TTITLE12=The Ikettes - I'm Blue
TTITLE13=Brook Benton - Rainy Night In Georgia
TTITLE14=Willie Mitchell - Soul Serenade
EXTD=
EXTT0=
EXTT1=
EXTT2=
EXTT3=
EXTT4=
EXTT5=
EXTT6=
EXTT7=
EXTT8=
EXTT9=
EXTT10=
EXTT11=
EXTT12=
EXTT13=
EXTT14=
PLAYORDER=
